# xmcd
#
# Track frame offsets: 
#        150
#        11497
#        21167
#        35650
#        49950
#        62367
#        72340
#        83557
#        95162
#        103052
#        111592
#        120717
#        133992
#        149120
#        165567
#        179535
#        198537
#        211460
#        226595
#        238692
#        251142
#        261325
#        275217
#        288405
#        300942
#        314385
#        327960
#        343107
#
# Disc length: 4724 seconds
#
# Revision: 2
# Processed by: cddbd v1.5.2PL0 Copyright (c) Steve Scherf et al.
# Submitted via: ExactAudioCopy v1.0b3
#
DISCID=b612721c
DTITLE=Donegan, Lonnie - Rock Island Line - The Singles Anthology 1955
DTITLE=1967 [Disc 1]
DYEAR=2002
DGENRE=Skiffle
TTITLE0=Rock Island Line
TTITLE1=John Henry
TTITLE2=Diggin' My Potatoes
TTITLE3=Bury My Body
TTITLE4=Lost John
TTITLE5=Stewball
TTITLE6=Bring A Little Water, Sylvie
TTITLE7=Dead Or Alive
TTITLE8=Don't You Rock Me Daddy-O
TTITLE9=I'm Alabammy Bound
TTITLE10=Cumberland Gap
TTITLE11=Love Is Strange
TTITLE12=Gamblin' Man
TTITLE13=Puttin' On The Style
TTITLE14=My Dixie Darling
TTITLE15=I'm Just A Rollin' Stone
TTITLE16=Jack O'Diamonds
TTITLE17=Ham 'n' Eggs
TTITLE18=The Grand Coolie Dam
TTITLE19=Nobody Loves Like An Irishman
TTITLE20=Sally Don't You Grieve
TTITLE21=Betty, Betty, Betty
TTITLE22=Lonesome Traveller
TTITLE23=Times Are Getting Hard, Boys
TTITLE24=Lonnie's Skiffle Party (Part 1)
TTITLE25=Lonnie's Skiffle Party (Part 2)
TTITLE26=Tom Dooley
TTITLE27=Rock O' My Soul
EXTD=YEAR: 2002
EXTT0=
EXTT1=
EXTT2=
EXTT3=
EXTT4=
EXTT5=
EXTT6=
EXTT7=
EXTT8=
EXTT9=
EXTT10=
EXTT11=
EXTT12=
EXTT13=
EXTT14=
EXTT15=
EXTT16=
EXTT17=
EXTT18=
EXTT19=
EXTT20=
EXTT21=
EXTT22=
EXTT23=
EXTT24=
EXTT25=
EXTT26=
EXTT27=
PLAYORDER=
